<mxfile host="app.diagrams.net" agent="Mozilla/5.0 (Windows NT 10.0; Win64; x64) AppleWebKit/537.36 (KHTML, like Gecko) Chrome/140.0.0.0 Safari/537.36" version="28.1.0">
  <diagram name="Pagina-1" id="RPsXW_9jfSzCzYH-i8-5">
    <mxGraphModel dx="1426" dy="743" grid="1" gridSize="10" guides="1" tooltips="1" connect="1" arrows="1" fold="1" page="1" pageScale="1" pageWidth="827" pageHeight="1169" math="0" shadow="0">
      <root>
        <mxCell id="0" />
        <mxCell id="1" parent="0" />
        <mxCell id="Wxn9p5AEj0Apfxrxtp6D-3" value="«Observable&lt;span style=&quot;background-color: transparent; color: light-dark(rgb(0, 0, 0), rgb(255, 255, 255));&quot;&gt;»&lt;/span&gt;&lt;div&gt;&lt;b&gt;:ModelImpl&lt;/b&gt;&lt;/div&gt;" style="html=1;dropTarget=0;whiteSpace=wrap;" vertex="1" parent="1">
          <mxGeometry x="690" y="60" width="180" height="90" as="geometry" />
        </mxCell>
        <mxCell id="Wxn9p5AEj0Apfxrxtp6D-4" value="" style="shape=module;jettyWidth=8;jettyHeight=4;" vertex="1" parent="Wxn9p5AEj0Apfxrxtp6D-3">
          <mxGeometry x="1" width="20" height="20" relative="1" as="geometry">
            <mxPoint x="-27" y="7" as="offset" />
          </mxGeometry>
        </mxCell>
        <mxCell id="Wxn9p5AEj0Apfxrxtp6D-5" value="&lt;div&gt;&lt;b&gt;:ControllerInput&lt;/b&gt;&lt;/div&gt;" style="html=1;dropTarget=0;whiteSpace=wrap;" vertex="1" parent="1">
          <mxGeometry x="390" y="60" width="180" height="90" as="geometry" />
        </mxCell>
        <mxCell id="Wxn9p5AEj0Apfxrxtp6D-6" value="" style="shape=module;jettyWidth=8;jettyHeight=4;" vertex="1" parent="Wxn9p5AEj0Apfxrxtp6D-5">
          <mxGeometry x="1" width="20" height="20" relative="1" as="geometry">
            <mxPoint x="-27" y="7" as="offset" />
          </mxGeometry>
        </mxCell>
        <mxCell id="Wxn9p5AEj0Apfxrxtp6D-8" value="«InputSource&lt;span style=&quot;background-color: transparent; color: light-dark(rgb(0, 0, 0), rgb(255, 255, 255));&quot;&gt;»&lt;/span&gt;&lt;div&gt;&lt;b&gt;:InputSourceGUI&lt;/b&gt;&lt;/div&gt;" style="html=1;dropTarget=0;whiteSpace=wrap;" vertex="1" parent="1">
          <mxGeometry x="20" y="60" width="180" height="90" as="geometry" />
        </mxCell>
        <mxCell id="Wxn9p5AEj0Apfxrxtp6D-9" value="" style="shape=module;jettyWidth=8;jettyHeight=4;" vertex="1" parent="Wxn9p5AEj0Apfxrxtp6D-8">
          <mxGeometry x="1" width="20" height="20" relative="1" as="geometry">
            <mxPoint x="-27" y="7" as="offset" />
          </mxGeometry>
        </mxCell>
        <mxCell id="Wxn9p5AEj0Apfxrxtp6D-10" value="«Observer&lt;span style=&quot;background-color: transparent; color: light-dark(rgb(0, 0, 0), rgb(255, 255, 255));&quot;&gt;»&lt;/span&gt;&lt;div&gt;&lt;b&gt;:ViewStdOut&lt;/b&gt;&lt;/div&gt;" style="html=1;dropTarget=0;whiteSpace=wrap;" vertex="1" parent="1">
          <mxGeometry x="970" y="60" width="180" height="90" as="geometry" />
        </mxCell>
        <mxCell id="Wxn9p5AEj0Apfxrxtp6D-11" value="" style="shape=module;jettyWidth=8;jettyHeight=4;" vertex="1" parent="Wxn9p5AEj0Apfxrxtp6D-10">
          <mxGeometry x="1" width="20" height="20" relative="1" as="geometry">
            <mxPoint x="-27" y="7" as="offset" />
          </mxGeometry>
        </mxCell>
        <mxCell id="Wxn9p5AEj0Apfxrxtp6D-12" value="«Observer&lt;span style=&quot;background-color: transparent; color: light-dark(rgb(0, 0, 0), rgb(255, 255, 255));&quot;&gt;»&lt;/span&gt;&lt;div&gt;&lt;b&gt;:ViewGUI&lt;/b&gt;&lt;/div&gt;" style="html=1;dropTarget=0;whiteSpace=wrap;" vertex="1" parent="1">
          <mxGeometry x="970" y="260" width="180" height="90" as="geometry" />
        </mxCell>
        <mxCell id="Wxn9p5AEj0Apfxrxtp6D-13" value="" style="shape=module;jettyWidth=8;jettyHeight=4;" vertex="1" parent="Wxn9p5AEj0Apfxrxtp6D-12">
          <mxGeometry x="1" width="20" height="20" relative="1" as="geometry">
            <mxPoint x="-27" y="7" as="offset" />
          </mxGeometry>
        </mxCell>
        <mxCell id="Wxn9p5AEj0Apfxrxtp6D-15" value="" style="rounded=0;orthogonalLoop=1;jettySize=auto;html=1;endArrow=halfCircle;endFill=0;endSize=6;strokeWidth=1;sketch=0;exitX=0;exitY=0.5;exitDx=0;exitDy=0;" edge="1" target="Wxn9p5AEj0Apfxrxtp6D-17" parent="1" source="Wxn9p5AEj0Apfxrxtp6D-52">
          <mxGeometry relative="1" as="geometry">
            <mxPoint x="510" y="410" as="sourcePoint" />
          </mxGeometry>
        </mxCell>
        <mxCell id="Wxn9p5AEj0Apfxrxtp6D-16" value="" style="rounded=0;orthogonalLoop=1;jettySize=auto;html=1;endArrow=oval;endFill=0;sketch=0;sourcePerimeterSpacing=0;targetPerimeterSpacing=0;endSize=10;exitX=0.25;exitY=0.5;exitDx=0;exitDy=0;exitPerimeter=0;startArrow=none;startFill=0;" edge="1" target="Wxn9p5AEj0Apfxrxtp6D-17" parent="1" source="Wxn9p5AEj0Apfxrxtp6D-53">
          <mxGeometry relative="1" as="geometry">
            <mxPoint x="460" y="415" as="sourcePoint" />
            <Array as="points">
              <mxPoint x="870" y="105" />
            </Array>
          </mxGeometry>
        </mxCell>
        <mxCell id="Wxn9p5AEj0Apfxrxtp6D-17" value="onChange" style="ellipse;whiteSpace=wrap;html=1;align=center;aspect=fixed;fillColor=none;strokeColor=none;resizable=0;perimeter=centerPerimeter;rotatable=0;allowArrows=0;points=[];outlineConnect=1;labelPosition=center;verticalLabelPosition=top;verticalAlign=bottom;" vertex="1" parent="1">
          <mxGeometry x="910" y="100" width="10" height="10" as="geometry" />
        </mxCell>
        <mxCell id="Wxn9p5AEj0Apfxrxtp6D-21" value="" style="ellipse;whiteSpace=wrap;html=1;align=center;aspect=fixed;fillColor=none;strokeColor=none;resizable=0;perimeter=centerPerimeter;rotatable=0;allowArrows=0;points=[];outlineConnect=1;" vertex="1" parent="1">
          <mxGeometry x="910" y="300" width="10" height="10" as="geometry" />
        </mxCell>
        <mxCell id="Wxn9p5AEj0Apfxrxtp6D-23" value="" style="rounded=0;orthogonalLoop=1;jettySize=auto;html=1;endArrow=halfCircle;endFill=0;endSize=6;strokeWidth=1;sketch=0;exitX=0;exitY=0.5;exitDx=0;exitDy=0;" edge="1" target="Wxn9p5AEj0Apfxrxtp6D-25" parent="1" source="Wxn9p5AEj0Apfxrxtp6D-44">
          <mxGeometry relative="1" as="geometry">
            <mxPoint x="290" y="105" as="sourcePoint" />
          </mxGeometry>
        </mxCell>
        <mxCell id="Wxn9p5AEj0Apfxrxtp6D-24" value="" style="rounded=0;orthogonalLoop=1;jettySize=auto;html=1;endArrow=oval;endFill=0;sketch=0;sourcePerimeterSpacing=0;targetPerimeterSpacing=0;endSize=10;" edge="1" target="Wxn9p5AEj0Apfxrxtp6D-25" parent="1" source="Wxn9p5AEj0Apfxrxtp6D-43">
          <mxGeometry relative="1" as="geometry">
            <mxPoint x="250" y="105" as="sourcePoint" />
          </mxGeometry>
        </mxCell>
        <mxCell id="Wxn9p5AEj0Apfxrxtp6D-25" value="changeState" style="ellipse;whiteSpace=wrap;html=1;align=center;aspect=fixed;fillColor=none;strokeColor=none;resizable=0;perimeter=centerPerimeter;rotatable=0;allowArrows=0;points=[];outlineConnect=1;labelPosition=center;verticalLabelPosition=top;verticalAlign=bottom;" vertex="1" parent="1">
          <mxGeometry x="290" y="100" width="10" height="10" as="geometry" />
        </mxCell>
        <mxCell id="Wxn9p5AEj0Apfxrxtp6D-26" value="«InputSource&lt;span style=&quot;background-color: transparent; color: light-dark(rgb(0, 0, 0), rgb(255, 255, 255));&quot;&gt;»&lt;/span&gt;&lt;div&gt;&lt;b&gt;:InputSourceStdIn&lt;/b&gt;&lt;/div&gt;" style="html=1;dropTarget=0;whiteSpace=wrap;" vertex="1" parent="1">
          <mxGeometry x="20" y="260" width="180" height="90" as="geometry" />
        </mxCell>
        <mxCell id="Wxn9p5AEj0Apfxrxtp6D-27" value="" style="shape=module;jettyWidth=8;jettyHeight=4;" vertex="1" parent="Wxn9p5AEj0Apfxrxtp6D-26">
          <mxGeometry x="1" width="20" height="20" relative="1" as="geometry">
            <mxPoint x="-27" y="7" as="offset" />
          </mxGeometry>
        </mxCell>
        <mxCell id="Wxn9p5AEj0Apfxrxtp6D-28" value="" style="rounded=0;orthogonalLoop=1;jettySize=auto;html=1;endArrow=halfCircle;endFill=0;endSize=6;strokeWidth=1;sketch=0;exitX=0.139;exitY=1.033;exitDx=0;exitDy=0;exitPerimeter=0;" edge="1" target="Wxn9p5AEj0Apfxrxtp6D-30" parent="1" source="Wxn9p5AEj0Apfxrxtp6D-5">
          <mxGeometry relative="1" as="geometry">
            <mxPoint x="340" y="110" as="sourcePoint" />
          </mxGeometry>
        </mxCell>
        <mxCell id="Wxn9p5AEj0Apfxrxtp6D-29" value="" style="rounded=0;orthogonalLoop=1;jettySize=auto;html=1;endArrow=oval;endFill=0;sketch=0;sourcePerimeterSpacing=0;targetPerimeterSpacing=0;endSize=10;exitX=1;exitY=0.5;exitDx=0;exitDy=0;" edge="1" target="Wxn9p5AEj0Apfxrxtp6D-30" parent="1" source="Wxn9p5AEj0Apfxrxtp6D-42">
          <mxGeometry relative="1" as="geometry">
            <mxPoint x="250" y="275" as="sourcePoint" />
          </mxGeometry>
        </mxCell>
        <mxCell id="Wxn9p5AEj0Apfxrxtp6D-30" value="changeState" style="ellipse;whiteSpace=wrap;html=1;align=center;aspect=fixed;fillColor=none;strokeColor=none;resizable=0;perimeter=centerPerimeter;rotatable=0;allowArrows=0;points=[];outlineConnect=1;labelPosition=center;verticalLabelPosition=bottom;verticalAlign=top;" vertex="1" parent="1">
          <mxGeometry x="409" y="300" width="10" height="10" as="geometry" />
        </mxCell>
        <mxCell id="Wxn9p5AEj0Apfxrxtp6D-31" value="&lt;div&gt;&lt;b&gt;:AutonomousController&lt;/b&gt;&lt;/div&gt;" style="html=1;dropTarget=0;whiteSpace=wrap;" vertex="1" parent="1">
          <mxGeometry x="480" y="260" width="180" height="90" as="geometry" />
        </mxCell>
        <mxCell id="Wxn9p5AEj0Apfxrxtp6D-32" value="" style="shape=module;jettyWidth=8;jettyHeight=4;" vertex="1" parent="Wxn9p5AEj0Apfxrxtp6D-31">
          <mxGeometry x="1" width="20" height="20" relative="1" as="geometry">
            <mxPoint x="-27" y="7" as="offset" />
          </mxGeometry>
        </mxCell>
        <mxCell id="Wxn9p5AEj0Apfxrxtp6D-33" value="" style="rounded=0;orthogonalLoop=1;jettySize=auto;html=1;endArrow=halfCircle;endFill=0;endSize=6;strokeWidth=1;sketch=0;exitX=0;exitY=0.5;exitDx=0;exitDy=0;" edge="1" target="Wxn9p5AEj0Apfxrxtp6D-35" parent="1" source="Wxn9p5AEj0Apfxrxtp6D-49">
          <mxGeometry relative="1" as="geometry">
            <mxPoint x="720" y="365" as="sourcePoint" />
          </mxGeometry>
        </mxCell>
        <mxCell id="Wxn9p5AEj0Apfxrxtp6D-34" value="" style="rounded=0;orthogonalLoop=1;jettySize=auto;html=1;endArrow=oval;endFill=0;sketch=0;sourcePerimeterSpacing=0;targetPerimeterSpacing=0;endSize=10;exitX=1;exitY=0.5;exitDx=0;exitDy=0;" edge="1" target="Wxn9p5AEj0Apfxrxtp6D-35" parent="1" source="Wxn9p5AEj0Apfxrxtp6D-48">
          <mxGeometry relative="1" as="geometry">
            <mxPoint x="680" y="365" as="sourcePoint" />
          </mxGeometry>
        </mxCell>
        <mxCell id="Wxn9p5AEj0Apfxrxtp6D-35" value="update" style="ellipse;whiteSpace=wrap;html=1;align=center;aspect=fixed;fillColor=none;strokeColor=none;resizable=0;perimeter=centerPerimeter;rotatable=0;allowArrows=0;points=[];outlineConnect=1;labelPosition=center;verticalLabelPosition=top;verticalAlign=bottom;" vertex="1" parent="1">
          <mxGeometry x="620" y="100" width="10" height="10" as="geometry" />
        </mxCell>
        <mxCell id="Wxn9p5AEj0Apfxrxtp6D-36" value="" style="rounded=0;orthogonalLoop=1;jettySize=auto;html=1;endArrow=halfCircle;endFill=0;endSize=6;strokeWidth=1;sketch=0;" edge="1" target="Wxn9p5AEj0Apfxrxtp6D-38" parent="1">
          <mxGeometry relative="1" as="geometry">
            <mxPoint x="715" y="150" as="sourcePoint" />
          </mxGeometry>
        </mxCell>
        <mxCell id="Wxn9p5AEj0Apfxrxtp6D-37" value="" style="rounded=0;orthogonalLoop=1;jettySize=auto;html=1;endArrow=oval;endFill=0;sketch=0;sourcePerimeterSpacing=0;targetPerimeterSpacing=0;endSize=10;" edge="1" target="Wxn9p5AEj0Apfxrxtp6D-38" parent="1">
          <mxGeometry relative="1" as="geometry">
            <mxPoint x="660" y="305" as="sourcePoint" />
            <Array as="points" />
          </mxGeometry>
        </mxCell>
        <mxCell id="Wxn9p5AEj0Apfxrxtp6D-38" value="update" style="ellipse;whiteSpace=wrap;html=1;align=center;aspect=fixed;fillColor=none;strokeColor=none;resizable=0;perimeter=centerPerimeter;rotatable=0;allowArrows=0;points=[];outlineConnect=1;labelPosition=center;verticalLabelPosition=bottom;verticalAlign=top;" vertex="1" parent="1">
          <mxGeometry x="710" y="300" width="10" height="10" as="geometry" />
        </mxCell>
        <mxCell id="Wxn9p5AEj0Apfxrxtp6D-39" value="" style="rounded=0;orthogonalLoop=1;jettySize=auto;html=1;endArrow=halfCircle;endFill=0;endSize=6;strokeWidth=1;sketch=0;exitX=0;exitY=0.5;exitDx=0;exitDy=0;" edge="1" target="Wxn9p5AEj0Apfxrxtp6D-41" parent="1" source="Wxn9p5AEj0Apfxrxtp6D-51">
          <mxGeometry relative="1" as="geometry">
            <mxPoint x="860" y="305" as="sourcePoint" />
          </mxGeometry>
        </mxCell>
        <mxCell id="Wxn9p5AEj0Apfxrxtp6D-40" value="" style="rounded=0;orthogonalLoop=1;jettySize=auto;html=1;endArrow=oval;endFill=0;sketch=0;sourcePerimeterSpacing=0;targetPerimeterSpacing=0;endSize=10;exitX=0.839;exitY=1.022;exitDx=0;exitDy=0;exitPerimeter=0;" edge="1" target="Wxn9p5AEj0Apfxrxtp6D-41" parent="1" source="Wxn9p5AEj0Apfxrxtp6D-3">
          <mxGeometry relative="1" as="geometry">
            <mxPoint x="820" y="255" as="sourcePoint" />
          </mxGeometry>
        </mxCell>
        <mxCell id="Wxn9p5AEj0Apfxrxtp6D-41" value="onChange" style="ellipse;whiteSpace=wrap;html=1;align=center;aspect=fixed;fillColor=none;strokeColor=none;resizable=0;perimeter=centerPerimeter;rotatable=0;allowArrows=0;points=[];outlineConnect=1;labelPosition=center;verticalLabelPosition=bottom;verticalAlign=top;" vertex="1" parent="1">
          <mxGeometry x="835" y="300" width="10" height="10" as="geometry" />
        </mxCell>
        <mxCell id="Wxn9p5AEj0Apfxrxtp6D-45" value="" style="verticalLabelPosition=bottom;verticalAlign=top;html=1;shape=mxgraph.basic.rect;fillColor2=none;strokeWidth=1;size=20;indent=5;" vertex="1" parent="1">
          <mxGeometry x="404" y="140" width="20" height="20" as="geometry" />
        </mxCell>
        <mxCell id="Wxn9p5AEj0Apfxrxtp6D-50" value="" style="verticalLabelPosition=bottom;verticalAlign=top;html=1;shape=mxgraph.basic.rect;fillColor2=none;strokeWidth=1;size=20;indent=5;" vertex="1" parent="1">
          <mxGeometry x="830" y="140" width="20" height="20" as="geometry" />
        </mxCell>
        <mxCell id="Wxn9p5AEj0Apfxrxtp6D-42" value="" style="verticalLabelPosition=bottom;verticalAlign=top;html=1;shape=mxgraph.basic.rect;fillColor2=none;strokeWidth=1;size=20;indent=5;" vertex="1" parent="1">
          <mxGeometry x="190" y="295" width="20" height="20" as="geometry" />
        </mxCell>
        <mxCell id="Wxn9p5AEj0Apfxrxtp6D-43" value="" style="verticalLabelPosition=bottom;verticalAlign=top;html=1;shape=mxgraph.basic.rect;fillColor2=none;strokeWidth=1;size=20;indent=5;" vertex="1" parent="1">
          <mxGeometry x="190" y="95" width="20" height="20" as="geometry" />
        </mxCell>
        <mxCell id="Wxn9p5AEj0Apfxrxtp6D-56" value="" style="rounded=0;orthogonalLoop=1;jettySize=auto;html=1;endArrow=halfCircle;endFill=0;endSize=6;strokeWidth=1;sketch=0;exitX=0;exitY=0.5;exitDx=0;exitDy=0;" edge="1" parent="1" source="Wxn9p5AEj0Apfxrxtp6D-5" target="Wxn9p5AEj0Apfxrxtp6D-44">
          <mxGeometry relative="1" as="geometry">
            <mxPoint x="390" y="105" as="sourcePoint" />
            <mxPoint x="270" y="105" as="targetPoint" />
          </mxGeometry>
        </mxCell>
        <mxCell id="Wxn9p5AEj0Apfxrxtp6D-44" value="" style="verticalLabelPosition=bottom;verticalAlign=top;html=1;shape=mxgraph.basic.rect;fillColor2=none;strokeWidth=1;size=20;indent=5;" vertex="1" parent="1">
          <mxGeometry x="380" y="95" width="20" height="20" as="geometry" />
        </mxCell>
        <mxCell id="Wxn9p5AEj0Apfxrxtp6D-46" value="" style="verticalLabelPosition=bottom;verticalAlign=top;html=1;shape=mxgraph.basic.rect;fillColor2=none;strokeWidth=1;size=20;indent=5;" vertex="1" parent="1">
          <mxGeometry x="650" y="295" width="20" height="20" as="geometry" />
        </mxCell>
        <mxCell id="Wxn9p5AEj0Apfxrxtp6D-58" value="" style="rounded=0;orthogonalLoop=1;jettySize=auto;html=1;endArrow=halfCircle;endFill=0;endSize=6;strokeWidth=1;sketch=0;exitX=0.139;exitY=1.044;exitDx=0;exitDy=0;exitPerimeter=0;" edge="1" parent="1" source="Wxn9p5AEj0Apfxrxtp6D-3" target="Wxn9p5AEj0Apfxrxtp6D-47">
          <mxGeometry relative="1" as="geometry">
            <mxPoint x="715" y="154" as="sourcePoint" />
            <mxPoint x="715" y="305" as="targetPoint" />
          </mxGeometry>
        </mxCell>
        <mxCell id="Wxn9p5AEj0Apfxrxtp6D-47" value="" style="verticalLabelPosition=bottom;verticalAlign=top;html=1;shape=mxgraph.basic.rect;fillColor2=none;strokeWidth=1;size=20;indent=5;" vertex="1" parent="1">
          <mxGeometry x="705" y="140" width="20" height="20" as="geometry" />
        </mxCell>
        <mxCell id="Wxn9p5AEj0Apfxrxtp6D-48" value="" style="verticalLabelPosition=bottom;verticalAlign=top;html=1;shape=mxgraph.basic.rect;fillColor2=none;strokeWidth=1;size=20;indent=5;" vertex="1" parent="1">
          <mxGeometry x="560" y="95" width="20" height="20" as="geometry" />
        </mxCell>
        <mxCell id="Wxn9p5AEj0Apfxrxtp6D-60" value="" style="rounded=0;orthogonalLoop=1;jettySize=auto;html=1;endArrow=halfCircle;endFill=0;endSize=6;strokeWidth=1;sketch=0;exitX=0;exitY=0.5;exitDx=0;exitDy=0;" edge="1" parent="1" source="Wxn9p5AEj0Apfxrxtp6D-3" target="Wxn9p5AEj0Apfxrxtp6D-49">
          <mxGeometry relative="1" as="geometry">
            <mxPoint x="690" y="105" as="sourcePoint" />
            <mxPoint x="625" y="105" as="targetPoint" />
          </mxGeometry>
        </mxCell>
        <mxCell id="Wxn9p5AEj0Apfxrxtp6D-49" value="" style="verticalLabelPosition=bottom;verticalAlign=top;html=1;shape=mxgraph.basic.rect;fillColor2=none;strokeWidth=1;size=20;indent=5;" vertex="1" parent="1">
          <mxGeometry x="680" y="95" width="20" height="20" as="geometry" />
        </mxCell>
        <mxCell id="Wxn9p5AEj0Apfxrxtp6D-61" value="" style="rounded=0;orthogonalLoop=1;jettySize=auto;html=1;endArrow=halfCircle;endFill=0;endSize=6;strokeWidth=1;sketch=0;exitX=0;exitY=0.5;exitDx=0;exitDy=0;" edge="1" parent="1" source="Wxn9p5AEj0Apfxrxtp6D-12" target="Wxn9p5AEj0Apfxrxtp6D-51">
          <mxGeometry relative="1" as="geometry">
            <mxPoint x="970" y="305" as="sourcePoint" />
            <mxPoint x="840" y="305" as="targetPoint" />
          </mxGeometry>
        </mxCell>
        <mxCell id="Wxn9p5AEj0Apfxrxtp6D-51" value="" style="verticalLabelPosition=bottom;verticalAlign=top;html=1;shape=mxgraph.basic.rect;fillColor2=none;strokeWidth=1;size=20;indent=5;" vertex="1" parent="1">
          <mxGeometry x="960" y="295" width="20" height="20" as="geometry" />
        </mxCell>
        <mxCell id="Wxn9p5AEj0Apfxrxtp6D-62" value="" style="rounded=0;orthogonalLoop=1;jettySize=auto;html=1;endArrow=halfCircle;endFill=0;endSize=6;strokeWidth=1;sketch=0;exitX=0;exitY=0.5;exitDx=0;exitDy=0;" edge="1" parent="1" source="Wxn9p5AEj0Apfxrxtp6D-10" target="Wxn9p5AEj0Apfxrxtp6D-52">
          <mxGeometry relative="1" as="geometry">
            <mxPoint x="970" y="105" as="sourcePoint" />
            <mxPoint x="915" y="105" as="targetPoint" />
          </mxGeometry>
        </mxCell>
        <mxCell id="Wxn9p5AEj0Apfxrxtp6D-52" value="" style="verticalLabelPosition=bottom;verticalAlign=top;html=1;shape=mxgraph.basic.rect;fillColor2=none;strokeWidth=1;size=20;indent=5;" vertex="1" parent="1">
          <mxGeometry x="960" y="95" width="20" height="20" as="geometry" />
        </mxCell>
        <mxCell id="Wxn9p5AEj0Apfxrxtp6D-53" value="" style="verticalLabelPosition=bottom;verticalAlign=top;html=1;shape=mxgraph.basic.rect;fillColor2=none;strokeWidth=1;size=20;indent=5;" vertex="1" parent="1">
          <mxGeometry x="860" y="95" width="20" height="20" as="geometry" />
        </mxCell>
      </root>
    </mxGraphModel>
  </diagram>
</mxfile>
